<?xml version="1.0" standalone="no"?>
<!DOCTYPE svg PUBLIC "-//W3C//DTD SVG 20010904//EN"
 "http://www.w3.org/TR/2001/REC-SVG-20010904/DTD/svg10.dtd">
<svg version="1.0" xmlns="http://www.w3.org/2000/svg"
 width="500.000000pt" height="500.000000pt" viewBox="0 0 500.000000 500.000000"
 preserveAspectRatio="xMidYMid meet">

<g transform="translate(0.000000,500.000000) scale(0.100000,-0.100000)"
fill="#000000" stroke="none">
<path d="M2583 4298 c-5 -7 -15 -37 -21 -67 -30 -134 -128 -295 -259 -423 -87
-86 -165 -149 -338 -273 -49 -35 -112 -82 -140 -104 -27 -22 -66 -52 -87 -65
-68 -47 -234 -222 -290 -307 -76 -116 -103 -171 -132 -275 -55 -199 -58 -352
-10 -544 30 -120 62 -188 128 -278 25 -34 46 -66 46 -70 0 -4 -42 -13 -93 -19
-117 -14 -290 -71 -295 -97 -8 -39 230 -249 347 -306 140 -68 209 -85 351 -85
145 0 227 20 367 88 l84 41 32 -19 c42 -24 97 -76 97 -92 0 -7 -19 -41 -43
-77 -75 -111 -175 -324 -193 -406 -15 -73 -13 -146 7 -197 13 -36 89 -113 133
-135 98 -50 240 -29 313 48 59 61 78 104 97 219 33 202 69 287 159 376 65 65
102 87 247 144 278 109 349 162 482 362 168 252 184 287 238 511 17 70 42 160
56 200 29 84 25 112 -14 112 -25 0 -36 -5 -92 -38 -22 -14 -22 -13 -15 27 12
73 -13 101 -71 76 -74 -31 -107 -100 -158 -331 -30 -134 -46 -179 -93 -264
-42 -77 -123 -181 -156 -203 -34 -22 -177 -76 -177 -67 0 5 53 63 118 130 123
128 177 203 188 258 8 43 -9 80 -40 88 -46 11 -112 -32 -281 -186 -48 -44
-112 -87 -196 -133 -69 -37 -140 -78 -159 -92 -18 -14 -35 -23 -37 -22 -5 6
65 198 92 248 14 28 45 76 68 108 23 33 58 82 77 110 l35 50 75 -6 c126 -12
302 -9 342 5 51 18 95 66 103 112 4 22 0 61 -9 95 -17 65 -13 79 26 117 32 30
37 71 13 105 -14 20 -14 25 5 55 24 40 26 81 4 99 -21 18 -44 64 -44 90 0 14
19 40 49 68 95 88 82 125 -86 249 -126 93 -173 165 -192 292 -31 204 -84 316
-209 446 -92 95 -156 141 -282 205 -106 54 -152 67 -167 47z m152 -76 c172
-86 304 -203 383 -341 53 -92 78 -165 88 -256 17 -166 68 -244 249 -375 33
-24 65 -51 72 -59 20 -26 15 -70 -12 -96 -26 -27 -40 -31 -50 -15 -16 25 -95
-13 -95 -46 0 -19 29 -18 36 1 4 8 15 15 25 15 17 0 18 -5 13 -39 -4 -22 -1
-55 5 -73 11 -30 10 -34 -11 -48 -13 -8 -56 -48 -96 -89 -50 -51 -69 -77 -63
-85 5 -6 42 -27 81 -46 70 -34 71 -35 65 -66 -3 -18 2 -58 11 -92 16 -57 16
-62 -2 -98 -37 -75 -124 -91 -367 -70 l-89 8 6 26 c4 15 10 62 13 104 15 198
-121 409 -330 511 -75 36 -137 53 -272 73 -74 10 -163 32 -232 56 -61 21 -123
38 -138 38 -34 0 -24 17 24 39 32 14 118 70 251 164 66 46 156 142 210 224 47
71 81 149 115 263 24 79 30 268 12 353 -15 67 -15 68 7 61 11 -4 52 -22 91
-42z m-122 -167 c1 -94 -4 -139 -21 -205 -30 -116 -46 -151 -116 -253 -92
-136 -219 -243 -446 -373 -140 -81 -275 -200 -339 -298 -96 -147 -131 -361
-85 -523 6 -22 5 -22 -60 -16 l-66 6 -1 -29 c-7 -158 14 -296 64 -407 46 -103
18 -105 -63 -4 -56 69 -125 203 -145 281 -31 124 -39 262 -22 387 23 167 59
260 165 429 73 114 288 307 554 495 207 146 335 264 423 390 75 107 97 151
120 230 17 55 19 58 28 35 5 -14 10 -79 10 -145z m-460 -964 c45 -17 129 -37
187 -46 148 -22 220 -40 294 -74 70 -32 153 -90 203 -142 67 -71 133 -232 133
-322 0 -50 -22 -138 -35 -143 -6 -3 -52 4 -101 15 -248 56 -375 145 -515 359
-62 95 -76 110 -127 137 -53 28 -57 33 -63 73 -10 78 -63 120 -136 107 -18 -3
-39 -16 -48 -28 -20 -28 -19 -100 1 -140 21 -40 21 -40 33 -33 7 4 3 21 -10
47 -51 97 31 172 109 99 14 -13 22 -33 22 -53 0 -44 22 -73 80 -102 85 -43
108 -110 48 -141 -42 -22 -94 -12 -181 33 -114 60 -188 180 -172 278 18 117
104 140 278 76z m-277 -231 c35 -64 96 -120 172 -159 102 -52 172 -53 217 -5
l23 25 33 -48 c117 -171 277 -273 512 -328 l88 -20 -87 -125 c-48 -69 -97
-152 -110 -185 -83 -221 -87 -229 -249 -458 -30 -43 -55 -82 -55 -86 0 -4 -5
-12 -11 -18 -8 -8 -27 1 -70 34 -33 26 -59 48 -59 50 0 2 29 30 63 63 93 87
172 209 213 330 27 78 27 331 1 408 -16 44 -22 52 -43 52 -36 0 -58 -14 -150
-90 l-80 -68 -34 70 c-43 88 -180 255 -216 264 -20 5 -31 2 -41 -12 -25 -33
-89 -167 -108 -224 -10 -30 -19 -56 -20 -58 -2 -2 -34 12 -71 31 -38 19 -86
40 -106 47 -46 14 -56 43 -65 181 -11 181 31 308 149 449 l63 74 6 -71 c5 -50
15 -86 35 -123z m1618 -27 c-10 -30 -57 -58 -114 -69 l-35 -7 50 53 c28 28 59
55 70 60 29 11 41 -4 29 -37z m-8 -117 c12 -51 -18 -59 -97 -25 -27 12 -49 25
-49 30 0 10 32 16 92 18 43 1 48 -2 54 -23z m226 -146 c-4 -38 -40 -174 -73
-280 -33 -102 -79 -201 -130 -277 -31 -48 -138 -147 -147 -138 -3 2 14 30 37
60 63 84 97 165 142 340 50 196 74 262 111 298 34 34 64 33 60 -3z m-1615
-105 c63 -71 132 -178 153 -236 12 -34 11 -38 -21 -85 -18 -27 -43 -75 -54
-107 l-22 -59 -40 64 c-24 39 -72 93 -124 138 -46 40 -85 77 -87 81 -6 13 50
163 80 217 17 28 36 52 43 52 8 0 40 -29 72 -65z m1753 55 c0 -12 -74 -289
-106 -397 -28 -94 -74 -185 -147 -293 -28 -41 -61 -93 -73 -114 -27 -47 -135
-158 -189 -195 -22 -15 -98 -51 -169 -80 -231 -95 -275 -119 -349 -192 -70
-70 -83 -92 -127 -222 l-27 -78 -18 48 c-58 156 -121 274 -192 357 -18 22 -33
46 -33 53 0 16 122 196 190 281 49 62 127 117 312 220 78 44 142 89 208 149
145 130 217 170 234 127 15 -40 -31 -121 -119 -209 -154 -156 -239 -264 -222
-282 4 -3 37 8 74 24 57 26 128 55 228 93 11 4 48 29 83 55 111 84 193 213
254 401 22 69 54 146 72 172 39 59 116 113 116 82z m-2178 -201 c108 -39 178
-70 178 -78 5 -250 6 -267 28 -323 13 -31 34 -73 47 -93 14 -20 25 -40 25 -44
0 -5 -42 7 -92 25 -87 33 -158 55 -219 68 -52 11 -123 216 -135 393 l-7 96 48
-7 c27 -4 84 -21 127 -37z m864 -36 c23 -106 15 -261 -19 -361 -35 -102 -100
-206 -175 -280 -35 -35 -66 -62 -68 -59 -3 2 7 44 22 93 35 117 45 332 20 437
-9 38 -16 72 -16 77 0 27 176 167 212 170 4 0 14 -34 24 -77z m-560 -133 c37
-33 74 -71 84 -83 76 -96 148 -282 157 -404 3 -40 3 -73 -1 -73 -15 0 -125 88
-183 147 -102 103 -153 226 -153 371 0 125 3 126 96 42z m314 -69 c16 -83 12
-236 -9 -334 -10 -48 -21 -90 -23 -93 -3 -3 -9 21 -13 53 -4 32 -20 97 -36
144 -28 85 -28 87 -13 140 21 71 66 161 76 151 4 -4 12 -32 18 -61z m-665
-271 c47 -67 156 -163 230 -201 84 -44 118 -55 233 -78 l87 -18 -59 -27 c-270
-121 -580 -82 -802 102 -74 61 -184 170 -184 183 0 10 20 17 125 44 114 30
129 32 246 34 l96 1 28 -40z m128 0 c126 -35 311 -138 417 -231 l35 -31 -60 7
c-169 19 -306 80 -417 185 -43 41 -78 77 -78 82 0 12 24 10 103 -12z m682
-483 c146 -202 225 -420 201 -550 -10 -56 -63 -125 -115 -152 -104 -52 -214
-39 -291 36 -54 52 -71 96 -71 176 0 75 8 106 64 233 41 93 162 300 175 300 4
-1 21 -20 37 -43z"/>
<path d="M2896 3680 c-32 -10 -79 -33 -105 -51 -63 -45 -137 -127 -125 -139 6
-6 33 12 74 53 84 81 163 120 250 125 60 3 68 1 107 -27 24 -17 45 -31 48 -31
13 0 3 29 -17 47 -51 46 -135 54 -232 23z"/>
<path d="M3081 3476 c-13 -32 -86 -64 -260 -113 -21 -6 -3 -18 59 -41 108 -39
236 -40 283 -2 l22 18 -22 24 c-25 27 -53 88 -53 118 0 27 -18 25 -29 -4z m28
-92 c12 -19 19 -39 16 -43 -13 -22 -181 -17 -218 6 -5 3 22 16 59 28 38 12 78
27 89 33 29 17 31 16 54 -24z"/>
<path d="M2527 805 c-11 -64 -49 -100 -140 -129 -22 -7 -13 -26 12 -26 75 0
161 89 161 166 0 38 -27 29 -33 -11z"/>
</g>
</svg>
