<?xml version="1.0" standalone="no"?>
<!DOCTYPE svg PUBLIC "-//W3C//DTD SVG 20010904//EN"
 "http://www.w3.org/TR/2001/REC-SVG-20010904/DTD/svg10.dtd">
<svg version="1.0" xmlns="http://www.w3.org/2000/svg"
 width="912.000000pt" height="273.000000pt" viewBox="0 0 912.000000 273.000000"
 preserveAspectRatio="xMidYMid meet">

<g transform="translate(0.000000,273.000000) scale(0.100000,-0.100000)"
fill="#000000" stroke="none">
<path d="M1361 2308 c-40 -136 -106 -214 -309 -365 -323 -241 -401 -365 -390
-619 4 -87 9 -110 36 -168 17 -37 40 -80 51 -95 l20 -28 -77 -15 c-97 -20
-132 -34 -132 -52 0 -24 129 -134 194 -166 92 -45 168 -56 263 -36 43 9 99 27
126 40 l47 25 35 -30 35 -31 -26 -42 c-53 -86 -105 -203 -110 -251 -13 -122
108 -203 222 -149 45 22 69 65 84 149 27 159 77 217 244 285 132 53 189 102
270 233 61 98 71 124 115 282 34 122 30 142 -19 113 l-30 -17 0 30 c0 36 -22
47 -54 26 -28 -19 -37 -42 -71 -171 -28 -109 -42 -139 -91 -207 -32 -44 -67
-68 -124 -84 -20 -6 -12 6 37 56 75 78 113 134 113 166 0 56 -58 37 -163 -54
-69 -60 -227 -152 -227 -133 0 23 69 157 107 209 l39 54 123 1 c118 1 123 2
143 26 17 21 19 34 14 79 -6 47 -4 57 15 77 17 19 19 26 9 44 -9 16 -9 25 -1
33 15 15 13 48 -4 71 -22 29 -18 46 17 83 28 29 30 35 20 57 -6 14 -36 43 -67
66 -72 53 -100 99 -115 184 -23 142 -115 262 -253 330 -40 20 -80 36 -89 36
-9 0 -20 -17 -27 -42z m161 -40 c61 -39 129 -114 158 -174 12 -26 28 -80 36
-121 7 -41 18 -82 23 -91 12 -21 74 -80 124 -117 20 -15 37 -35 37 -45 0 -24
-26 -44 -46 -36 -18 7 -44 -10 -44 -27 0 -7 4 -7 12 1 20 20 24 14 23 -33 0
-42 -4 -50 -47 -88 -27 -24 -48 -46 -48 -50 0 -5 19 -16 41 -26 36 -16 42 -24
44 -52 1 -19 5 -44 9 -56 5 -15 0 -29 -16 -47 -24 -28 -57 -33 -178 -28 l-55
2 0 83 c0 72 -3 88 -30 136 -30 55 -103 119 -160 141 -16 7 -79 23 -140 36
-148 33 -205 48 -205 54 0 3 30 22 65 43 85 49 187 146 224 210 45 79 64 167
58 264 l-5 82 37 -15 c19 -8 57 -29 83 -46z m-132 -52 c0 -126 -49 -244 -137
-327 -39 -37 -63 -54 -214 -152 -97 -63 -136 -103 -177 -180 -24 -47 -27 -62
-27 -155 l0 -103 -32 6 -33 6 0 -73 c0 -49 8 -95 24 -140 13 -41 18 -68 12
-68 -20 1 -78 89 -102 155 -50 138 -41 273 27 412 53 108 114 170 309 315 201
149 302 260 326 355 12 47 24 21 24 -51z m-256 -527 c37 -11 103 -26 146 -34
99 -17 155 -42 210 -91 57 -51 90 -123 90 -194 0 -80 -7 -86 -72 -72 -121 28
-220 97 -281 198 -18 31 -45 61 -64 71 -20 10 -36 28 -40 43 -14 60 -69 80
-99 35 -17 -26 -9 -75 13 -82 9 -3 9 3 1 25 -14 38 -5 62 25 62 29 0 47 -18
47 -46 0 -15 14 -32 43 -51 65 -44 50 -93 -25 -79 -47 9 -125 77 -137 120 -12
44 -3 83 22 101 28 20 42 19 121 -6z m-128 -156 c25 -33 111 -83 144 -83 8 0
27 6 42 14 26 14 27 13 52 -25 46 -69 159 -138 264 -160 l53 -11 -24 -31 c-54
-71 -77 -111 -103 -180 -15 -39 -41 -92 -58 -117 -72 -109 -98 -145 -105 -145
-3 0 -19 10 -34 22 l-28 22 46 48 c25 26 60 77 78 113 30 60 32 72 32 171 0
126 -10 147 -56 124 -16 -9 -44 -29 -63 -45 l-34 -30 -27 47 c-31 54 -103 133
-121 133 -11 0 -62 -94 -77 -142 -5 -15 -11 -14 -64 7 -57 23 -58 25 -71 76
-24 93 12 219 82 290 l31 32 7 -47 c4 -28 18 -62 34 -83z m868 28 c9 -14 -17
-40 -49 -47 l-30 -7 29 32 c31 32 41 37 50 22z m-6 -83 c4 -21 -28 -24 -61 -6
-21 11 -21 11 -2 19 31 12 59 6 63 -13z m122 -79 c0 -34 -50 -189 -80 -249
-16 -30 -47 -73 -71 -95 l-42 -40 22 35 c38 59 59 111 85 213 26 100 41 137
60 149 19 13 26 9 26 -13z m-888 -46 c35 -38 88 -123 88 -143 0 -9 -9 -33 -20
-55 -11 -22 -20 -45 -20 -52 0 -23 -16 -14 -49 30 -17 23 -47 53 -66 67 -19
14 -35 32 -35 40 0 21 57 140 68 140 4 0 20 -12 34 -27z m963 10 c-4 -10 -20
-67 -35 -127 -33 -123 -59 -178 -133 -286 -66 -95 -109 -127 -243 -180 -133
-54 -181 -96 -215 -190 l-23 -63 -12 35 c-18 52 -53 118 -90 170 l-33 47 49
73 c63 95 98 127 196 181 45 24 116 74 159 111 84 71 115 82 115 42 0 -17 -23
-49 -68 -98 -78 -85 -127 -147 -120 -153 2 -3 48 14 102 37 146 62 201 124
256 293 13 40 35 82 51 97 31 32 55 37 44 11z m-1204 -93 c110 -35 109 -34
113 -126 2 -65 8 -90 29 -127 14 -26 24 -47 22 -47 -24 0 -183 63 -193 77 -30
41 -67 243 -44 243 5 0 38 -9 73 -20z m489 -40 c13 -68 -2 -165 -36 -232 -24
-47 -103 -143 -111 -135 -2 2 3 23 12 46 22 63 28 158 15 229 -9 51 -9 67 2
79 15 18 100 75 105 70 1 -2 7 -27 13 -57z m-281 -85 c55 -60 92 -140 99 -217
l5 -61 -48 34 c-89 64 -134 147 -135 247 0 57 2 62 18 53 10 -5 37 -31 61 -56z
m145 -6 c9 -49 7 -133 -6 -191 l-11 -53 -20 75 c-23 89 -23 102 -2 157 20 51
30 54 39 12z m-374 -138 c0 -17 92 -101 134 -123 22 -12 70 -29 106 -38 59
-15 63 -18 43 -28 -36 -20 -134 -42 -183 -42 -60 0 -137 21 -196 54 -69 38
-172 132 -159 145 28 28 255 56 255 32z m118 -28 c74 -29 96 -41 162 -91 l45
-34 -52 4 c-68 6 -167 55 -218 107 -48 50 -34 53 63 14z m400 -359 c64 -130
64 -205 2 -258 -44 -37 -88 -42 -144 -17 -74 32 -93 99 -57 202 16 48 77 162
104 197 12 15 53 -38 95 -124z"/>
<path d="M1533 2005 c-46 -20 -113 -75 -113 -94 0 -10 13 -3 38 21 69 66 150
87 200 52 12 -8 22 -11 22 -5 0 18 -44 41 -80 41 -19 -1 -50 -7 -67 -15z"/>
<path d="M1638 1888 c-10 -10 -45 -26 -78 -35 -33 -10 -60 -21 -60 -24 0 -11
78 -29 127 -29 65 0 75 13 48 65 -19 39 -21 40 -37 23z m32 -59 c0 -14 -34
-20 -77 -13 -50 7 -49 12 10 35 38 14 43 14 55 1 6 -9 12 -19 12 -23z"/>
<path d="M1337 427 c-11 -26 -27 -42 -47 -50 -29 -11 -41 -27 -20 -27 40 0 99
68 88 101 -3 9 -11 -1 -21 -24z"/>
<path d="M5795 1895 c6 -2 22 -6 37 -9 34 -8 94 -59 114 -98 14 -26 13 -47 -5
-211 -30 -257 -27 -246 -64 -262 -31 -14 -30 -14 42 -15 71 0 73 1 52 18 -20
17 -20 17 -4 199 9 100 19 180 23 178 3 -2 46 -92 95 -199 80 -174 105 -219
105 -186 0 12 172 401 176 398 1 -2 14 -86 28 -188 29 -201 45 -250 101 -299
35 -31 91 -51 135 -50 20 0 18 3 -15 15 -54 20 -108 75 -128 132 -9 26 -33
150 -52 277 -20 126 -38 231 -40 233 -5 6 -28 -41 -116 -240 -44 -101 -83
-186 -87 -190 -4 -4 -49 85 -100 196 -52 112 -107 219 -122 238 -37 45 -86 68
-142 67 -23 0 -38 -2 -33 -4z"/>
<path d="M2485 1818 c43 -23 45 -33 45 -258 0 -230 -1 -235 -50 -253 -8 -3 23
-6 70 -6 75 -1 82 1 60 12 -24 12 -25 16 -28 125 l-3 112 151 0 151 0 -3 -112
c-3 -109 -4 -113 -28 -125 -22 -11 -15 -13 60 -12 66 0 80 2 60 10 -13 6 -28
15 -32 22 -4 7 -8 112 -8 234 l0 221 28 21 27 20 -80 0 c-65 0 -76 -2 -60 -11
32 -18 35 -28 35 -140 l0 -108 -150 0 -150 0 0 115 0 114 28 15 c26 14 23 15
-58 15 -67 0 -81 -2 -65 -11z"/>
<path d="M3250 1735 c-28 -71 -175 -382 -189 -399 -9 -10 -25 -22 -36 -27 -13
-5 6 -8 55 -8 56 0 70 2 58 10 -23 13 -23 37 2 93 l19 46 96 0 96 0 19 -42
c24 -54 25 -84 3 -97 -13 -8 3 -10 62 -11 l80 0 -28 18 c-23 13 -46 56 -108
192 -44 96 -88 193 -98 215 l-19 40 -12 -30z m53 -165 l36 -85 -76 -3 c-41 -2
-78 -1 -81 2 -3 3 12 46 33 96 21 50 42 87 46 83 4 -4 23 -46 42 -93z"/>
<path d="M3585 1543 l0 -217 -25 -13 c-22 -11 -18 -13 45 -12 39 0 63 3 55 6
-35 13 -40 35 -40 191 0 93 4 152 10 150 5 -1 73 -64 152 -138 79 -75 163
-154 188 -177 l45 -41 0 216 0 216 25 13 c22 11 18 13 -45 13 -63 0 -67 -2
-45 -13 25 -13 25 -13 28 -176 l3 -163 -50 44 c-27 23 -114 105 -194 181 -79
75 -146 137 -148 137 -2 0 -4 -98 -4 -217z"/>
<path d="M4158 1544 l-3 -218 -25 -13 c-22 -11 -17 -13 50 -12 56 0 69 3 52 9
-12 5 -25 15 -27 23 -3 7 -4 82 -3 166 l3 152 25 -22 c14 -13 98 -92 186 -176
89 -84 164 -153 168 -153 3 0 7 98 8 217 l3 217 25 7 c15 4 -5 7 -50 7 -45 0
-65 -3 -50 -7 l25 -7 3 -169 3 -170 -68 66 c-112 107 -235 224 -280 264 l-43
37 -2 -218z"/>
<path d="M5152 1733 c-5 -15 -49 -113 -98 -216 -66 -141 -94 -192 -113 -202
-24 -13 -22 -14 42 -15 62 0 67 1 53 16 -20 20 -20 21 5 83 l22 51 97 0 98 0
22 -55 c22 -53 22 -56 5 -75 -18 -20 -17 -20 56 -20 68 1 72 2 49 14 -19 11
-48 64 -118 218 -113 248 -107 237 -120 201z m46 -140 c17 -43 34 -86 38 -95
5 -16 -2 -18 -76 -18 -62 0 -81 3 -77 13 39 99 73 177 78 177 4 0 20 -35 37
-77z"/>
<path d="M6810 1750 c0 -8 -42 -105 -92 -214 -75 -160 -99 -203 -123 -218
l-30 -18 75 0 c56 1 71 3 58 11 -23 13 -22 43 2 97 l19 42 96 0 96 0 19 -46
c25 -56 25 -80 3 -93 -13 -8 3 -10 62 -10 52 0 73 3 60 9 -32 12 -37 21 -135
235 -89 195 -110 234 -110 205z m49 -172 l40 -98 -84 0 -84 0 36 83 c19 45 38
90 40 100 3 10 7 16 8 15 2 -2 21 -47 44 -100z"/>
<path d="M7248 1745 c-85 -31 -132 -90 -144 -182 -14 -112 40 -214 134 -250
55 -21 150 -23 205 -4 54 18 107 67 107 99 0 23 -2 23 -29 -15 -36 -50 -91
-73 -173 -73 -124 0 -188 71 -188 209 0 105 33 162 113 196 89 37 208 -1 245
-78 l20 -42 -5 45 c-8 66 -16 75 -81 94 -69 19 -153 20 -204 1z"/>
<path d="M8006 1543 c-76 -163 -106 -218 -125 -228 -24 -13 -22 -14 44 -14 52
0 66 2 53 10 -23 13 -23 30 3 90 l21 49 98 0 97 0 22 -56 c20 -53 20 -58 5
-75 -17 -18 -15 -19 57 -19 69 1 72 2 48 15 -18 10 -40 47 -79 132 -29 65 -70
155 -92 201 -21 46 -38 87 -38 92 0 38 -28 -11 -114 -197z m133 45 c18 -46 35
-89 38 -95 4 -10 -15 -13 -77 -13 -62 0 -81 3 -77 13 38 97 73 177 78 177 3 0
21 -37 38 -82z"/>
<path d="M8473 1745 c-17 -7 -39 -27 -47 -44 -34 -65 -16 -104 82 -177 102
-77 112 -88 112 -128 0 -49 -37 -76 -102 -76 -58 0 -98 31 -98 77 0 22 -2 25
-10 13 -14 -22 -12 -76 3 -88 7 -7 37 -17 67 -23 102 -22 180 29 180 116 0 52
-9 62 -118 145 -82 63 -100 89 -87 129 19 62 141 67 165 8 7 -19 9 -17 9 14 1
30 -3 38 -21 43 -38 10 -101 6 -135 -9z"/>
<path d="M4725 1743 c41 -10 45 -28 45 -217 0 -100 -4 -186 -8 -193 -4 -7 -19
-16 -32 -22 -20 -8 -6 -10 60 -10 75 -1 82 1 60 12 l-25 13 -3 201 -2 201 27
10 c23 8 12 10 -57 10 -47 0 -76 -2 -65 -5z"/>
<path d="M7655 1743 c44 -11 45 -17 45 -220 l0 -194 -32 -14 c-32 -14 -29 -14
57 -14 86 0 89 0 58 14 l-33 14 0 194 c0 203 1 209 45 220 11 2 -20 5 -70 5
-49 0 -81 -3 -70 -5z"/>
<path d="M5835 1060 c-21 -23 -8 -27 20 -7 11 8 14 16 8 20 -6 4 -18 -2 -28
-13z"/>
<path d="M4035 996 c-35 -35 -35 -107 0 -141 31 -31 83 -33 116 -5 l24 21 -32
-16 c-44 -21 -60 -19 -88 11 -31 33 -33 82 -4 118 30 38 86 31 102 -14 3 -8 6
-1 6 15 1 29 -1 30 -49 33 -42 3 -54 -1 -75 -22z"/>
<path d="M4325 996 c-32 -32 -40 -69 -25 -107 26 -62 96 -79 147 -35 23 20 28
32 28 71 0 39 -5 51 -28 71 -38 32 -90 32 -122 0z m104 -12 c28 -35 28 -97 1
-124 -46 -46 -110 -4 -110 71 0 73 68 105 109 53z"/>
<path d="M4621 1006 c-23 -27 -8 -58 39 -86 49 -29 60 -50 36 -70 -22 -17 -65
-4 -76 23 -8 20 -9 20 -9 -8 -1 -28 2 -30 39 -33 51 -3 80 12 80 42 0 26 -19
46 -68 70 -25 13 -32 23 -30 39 5 33 58 31 75 -3 l13 -25 0 31 c0 29 -2 30
-43 33 -29 1 -48 -3 -56 -13z"/>
<path d="M4868 1014 c15 -7 17 -137 2 -165 -9 -17 -7 -19 17 -18 15 0 22 3 16
6 -9 3 -13 28 -13 76 l1 72 30 -70 c17 -38 35 -74 39 -78 4 -5 20 24 36 64
l29 73 9 -54 c5 -37 5 -60 -3 -72 -10 -16 -7 -18 21 -18 18 0 28 4 22 8 -16
11 -27 151 -13 168 9 11 7 14 -9 14 -15 0 -25 -14 -42 -57 -42 -105 -39 -104
-74 -22 -26 61 -36 74 -57 76 -13 1 -18 0 -11 -3z"/>
<path d="M5215 925 l0 -95 63 0 c61 0 62 0 61 28 0 16 -3 21 -6 12 -8 -21 -24
-30 -55 -30 -26 0 -28 3 -28 40 0 36 3 40 24 40 13 0 27 -6 29 -12 3 -7 6 0 6
17 1 22 -2 26 -11 17 -7 -7 -20 -12 -31 -12 -15 0 -18 6 -15 38 2 31 7 38 27
40 15 3 30 -3 38 -14 12 -17 13 -16 13 4 0 20 -5 22 -57 22 l-58 0 0 -95z"/>
<path d="M5465 999 c-9 -28 1 -35 15 -10 6 12 20 21 30 21 18 0 20 -7 20 -84
0 -58 -4 -86 -12 -89 -7 -3 2 -6 21 -6 28 -1 31 1 22 13 -7 9 -11 42 -9 88 3
65 5 73 23 73 11 0 25 -11 32 -25 l13 -25 0 33 0 32 -74 0 c-67 0 -75 -2 -81
-21z"/>
<path d="M5773 996 c-23 -20 -28 -32 -28 -71 0 -39 5 -51 28 -71 18 -15 41
-24 62 -24 21 0 44 9 62 24 23 20 28 32 28 71 0 39 -5 51 -28 71 -18 15 -41
24 -62 24 -21 0 -44 -9 -62 -24z m106 -12 c42 -54 15 -144 -44 -144 -34 0 -65
44 -65 91 0 73 68 105 109 53z"/>
<path d="M6065 925 l0 -96 60 3 c59 3 60 4 63 33 l3 30 -13 -25 c-10 -18 -23
-26 -46 -28 l-33 -3 3 90 c3 85 2 91 -17 91 -19 0 -20 -7 -20 -95z"/>
<path d="M6333 996 c-23 -20 -28 -32 -28 -71 0 -39 5 -51 28 -71 18 -15 41
-24 62 -24 21 0 44 9 62 24 23 20 28 32 28 71 0 39 -5 51 -28 71 -18 15 -41
24 -62 24 -21 0 -44 -9 -62 -24z m106 -12 c42 -54 15 -144 -44 -144 -34 0 -65
44 -65 91 0 73 68 105 109 53z"/>
<path d="M6645 996 c-20 -20 -25 -35 -25 -75 0 -42 4 -53 26 -70 28 -22 51
-25 103 -15 27 6 31 11 31 39 0 19 6 36 13 38 6 3 -4 5 -23 5 -19 0 -29 -2
-22 -5 6 -2 12 -18 12 -34 0 -22 -5 -30 -26 -35 -74 -19 -123 76 -73 140 28
36 71 35 98 -1 l20 -28 1 31 c0 31 0 31 -55 33 -47 1 -59 -2 -80 -23z"/>
<path d="M6960 953 c-13 -38 -29 -80 -37 -95 -12 -25 -12 -28 5 -28 13 0 18 7
17 28 0 25 3 27 40 27 37 0 40 -2 40 -27 -1 -22 4 -28 21 -28 22 0 22 1 -13
88 -19 48 -38 90 -42 95 -4 4 -18 -23 -31 -60z m50 -44 c0 -5 -11 -9 -25 -9
-28 0 -29 4 -14 50 l12 32 13 -32 c8 -18 14 -36 14 -41z"/>
</g>
</svg>
